<svg width="122" height="49" viewBox="0 0 122 49" fill="none" xmlns="http://www.w3.org/2000/svg">
<path d="M80.88 39.352C79.296 39.352 77.8587 39.0733 76.568 38.516C75.2773 37.9587 74.1773 37.196 73.268 36.228C72.3587 35.2307 71.6547 34.0867 71.156 32.796C70.6867 31.476 70.452 30.068 70.452 28.572C70.452 27.076 70.6867 25.668 71.156 24.348C71.6547 23.028 72.3587 21.884 73.268 20.916C74.1773 19.9187 75.2773 19.1413 76.568 18.584C77.8587 18.0267 79.296 17.748 80.88 17.748C82.376 17.748 83.6373 17.9093 84.664 18.232C85.72 18.5253 86.6733 18.9067 87.524 19.376C87.5827 20.0507 87.48 20.5787 87.216 20.96C86.952 21.3413 86.6147 21.532 86.204 21.532C85.94 21.532 85.6613 21.4733 85.368 21.356C85.104 21.2093 84.7813 21.0627 84.4 20.916C84.0187 20.7693 83.5493 20.6373 82.992 20.52C82.464 20.3733 81.804 20.3 81.012 20.3C79.9853 20.3 79.0173 20.4907 78.108 20.872C77.1987 21.224 76.392 21.752 75.688 22.456C75.0133 23.16 74.4707 24.0253 74.06 25.052C73.6493 26.0787 73.444 27.252 73.444 28.572C73.444 29.8627 73.6493 31.0213 74.06 32.048C74.4707 33.0453 75.0133 33.896 75.688 34.6C76.392 35.304 77.1987 35.8467 78.108 36.228C79.0173 36.58 79.9853 36.756 81.012 36.756C81.8333 36.756 82.5373 36.6973 83.124 36.58C83.74 36.4333 84.2533 36.2867 84.664 36.14C85.104 35.964 85.4707 35.8173 85.764 35.7C86.0573 35.5533 86.3213 35.48 86.556 35.48C87.0253 35.48 87.3773 35.6707 87.612 36.052C87.8467 36.404 87.9347 36.9467 87.876 37.68C87.3773 37.944 86.8787 38.1787 86.38 38.384C85.8813 38.5893 85.3533 38.7653 84.796 38.912C84.2387 39.0587 83.6373 39.1613 82.992 39.22C82.376 39.308 81.672 39.352 80.88 39.352ZM93.1216 39.264C92.8576 39.264 92.5936 39.2493 92.3296 39.22C92.0656 39.1907 91.8603 39.1467 91.7136 39.088V10.268C91.7136 9.916 91.8163 9.63733 92.0216 9.432C92.2563 9.19733 92.667 9.08 93.2536 9.08C93.5176 9.08 93.7816 9.10933 94.0456 9.168C94.3096 9.19733 94.515 9.24133 94.6616 9.3V38.076C94.6616 38.428 94.5443 38.7213 94.3096 38.956C94.1043 39.1613 93.7083 39.264 93.1216 39.264ZM109.585 39.396C108.001 39.396 106.564 39.1173 105.273 38.56C103.983 38.0027 102.868 37.24 101.929 36.272C101.02 35.304 100.316 34.16 99.8172 32.84C99.3185 31.52 99.0692 30.0827 99.0692 28.528C99.0692 27.0613 99.3185 25.668 99.8172 24.348C100.316 23.028 101.02 21.8693 101.929 20.872C102.868 19.8747 103.983 19.0827 105.273 18.496C106.564 17.9093 108.001 17.616 109.585 17.616C111.169 17.616 112.592 17.9093 113.853 18.496C115.115 19.0827 116.2 19.8747 117.109 20.872C118.019 21.8693 118.708 23.028 119.177 24.348C119.676 25.668 119.925 27.0613 119.925 28.528C119.925 30.024 119.676 31.432 119.177 32.752C118.708 34.0427 118.019 35.1867 117.109 36.184C116.229 37.1813 115.144 37.9733 113.853 38.56C112.592 39.1173 111.169 39.396 109.585 39.396ZM109.585 36.888C110.465 36.888 111.345 36.7267 112.225 36.404C113.105 36.052 113.897 35.5387 114.601 34.864C115.305 34.16 115.877 33.28 116.317 32.224C116.787 31.168 117.021 29.936 117.021 28.528C117.021 27.208 116.816 26.0347 116.405 25.008C115.995 23.952 115.452 23.072 114.777 22.368C114.103 21.6347 113.311 21.0773 112.401 20.696C111.521 20.3147 110.583 20.124 109.585 20.124C108.647 20.124 107.723 20.3147 106.813 20.696C105.904 21.0773 105.083 21.6347 104.349 22.368C103.645 23.072 103.073 23.952 102.633 25.008C102.193 26.0347 101.973 27.208 101.973 28.528C101.973 29.936 102.193 31.168 102.633 32.224C103.073 33.2507 103.645 34.116 104.349 34.82C105.083 35.524 105.904 36.052 106.813 36.404C107.723 36.7267 108.647 36.888 109.585 36.888Z" fill="#1B1B1B"/>
<path fill-rule="evenodd" clip-rule="evenodd" d="M28.9978 8.89641C28.9978 8.26409 28.5809 8 28.0563 8H24.7659C23.4562 8 22.5255 8.65357 22.5255 10.2573V38.5252C22.5255 39.1542 22.9411 39.4203 23.4666 39.4203H26.7545C28.0684 39.4203 28.9982 38.7655 28.9982 37.1601V8.89641H28.9978ZM66.4033 19.2323C66.531 18.9582 66.6667 18.6987 66.6667 18.4333C66.6667 17.8993 66.2797 17.6377 65.7451 17.6377H61.7466C60.947 17.6377 60.5846 17.921 60.2938 18.5724L54.6553 31.1039L46.7905 18.6987C46.3046 17.931 45.7912 17.6377 44.625 17.6377H39.8722C38.8833 17.6377 38.3557 17.8993 37.7662 18.5304L29.3955 27.5349L36.9046 38.4923C37.3394 39.1233 37.7017 39.4207 38.3557 39.4207H42.8298C43.4975 39.4207 43.8895 39.1542 43.8895 38.5901C43.8895 38.2436 43.7222 38.0199 43.498 37.6996L36.9046 27.9248L41.9091 22.5259L51.7958 37.1606L47.4249 46.4104C47.3055 46.6825 47.1674 46.9457 47.1674 47.2073C47.1674 47.7413 47.5568 48 48.0906 48H52.0575C52.8642 48 53.2112 47.7205 53.5112 47.0707L66.4033 19.2323ZM8.05282 25.1689C6.74064 24.8753 6.33375 24.5058 6.33375 23.8355C6.33375 23.3224 6.74064 22.9137 7.92634 22.9137H17.5231C19.1223 22.9137 19.768 21.979 19.768 20.6689V18.582C19.768 18.0559 19.508 17.6373 18.8814 17.6373H7.63678C2.62894 17.6373 0 20.5411 0 24.2438C0 27.5341 2.02361 29.5389 6.06333 30.4408L12.5136 31.885C13.8249 32.1799 14.2343 32.5502 14.2343 33.2192C14.2343 33.7336 13.8249 34.1426 12.6413 34.1426H2.63893C1.03593 34.1426 0.389411 35.0728 0.389411 36.3837V38.4743C0.389411 38.9992 0.650683 39.4203 1.28015 39.4203H12.2527C18.1767 39.4203 20.5676 36.5132 20.5676 33.0742C20.5676 29.5181 18.5178 27.5174 14.5035 26.616L8.05282 25.1689Z" fill="#1B1B1B"/>
</svg>
